<svg width="56" height="42" viewBox="0 0 56 42" xmlns="http://www.w3.org/2000/svg">
    <g fill="#0E3051" fill-rule="evenodd">
        <path d="M32.13 12.841c.4-.17.525-.748.52-1.266 0-.402-.07-.737-.07-.737a.158.158 0 0 1 .123-.184.157.157 0 0 1 .184.121c0 .006.074.362.074.8-.003.546-.102 1.358-.703 1.646-.467.218-.75.243-.945.289-.154.04-.268.084-.464.28-.285.41-.632.828-1.051 1.248.063-.006.13-.01.205-.015.915-.06 1.409-.186 1.668-.34.254-.154.318-.32.411-.59a.152.152 0 0 1 .195-.098.153.153 0 0 1 .098.195c-.086.274-.281.61-.624.808-.341.197-.792.396-1.73.459a3.38 3.38 0 0 0-.845.158c-.169.145-.346.29-.533.437.615-.186 1.452-.353 2.235-.21 0 0-.34 1.035-.899 1.21-.559.177-.786.166-.951.187-.165.025-.68.044-.593.662.09.616.098 1.067-.107 1.42-.21.35-.418.58-.462.879-.044.297-.054.44-.054.638 0 .242-.163.77-.722.77-.558 0-.721-.528-.721-.77 0-.198-.013-.341-.055-.638-.045-.298-.252-.528-.46-.88-.209-.352-.196-.803-.111-1.42.09-.617-.427-.636-.592-.66-.162-.022-.391-.011-.952-.187-.557-.176-.896-1.21-.896-1.21.78-.144 1.62.023 2.236.21-.19-.147-.367-.293-.535-.438a3.378 3.378 0 0 0-.845-.158c-.94-.063-1.39-.262-1.73-.459-.343-.197-.537-.534-.627-.808a.156.156 0 0 1 .1-.195.153.153 0 0 1 .196.098c.092.27.156.436.41.59.26.154.75.28 1.67.34.073.004.139.01.204.015a9.31 9.31 0 0 1-1.05-1.248c-.197-.194-.312-.24-.466-.28-.195-.046-.477-.071-.943-.289-.602-.288-.702-1.1-.703-1.646 0-.438.073-.794.073-.8a.155.155 0 0 1 .18-.121c.088.017.142.1.124.184 0 0-.069.335-.069.737-.001.518.12 1.095.523 1.266.35.161.602.16.807.179a7.037 7.037 0 0 1-.763-2.341c-.134-.56-.42-.875-.745-1.297-.382-.52-.462-1.65-.47-1.662a.159.159 0 0 1 .142-.17.158.158 0 0 1 .169.142s.024.277.09.61c.063.328.18.714.316.89.145.19.292.37.43.575.05-1.786.912-2.968.921-2.983a.156.156 0 0 1 .217-.034.158.158 0 0 1 .031.218s-.048.068-.13.207c-.082.137-.19.342-.3.6a5.564 5.564 0 0 0-.432 2.276c.199-.452.545-.931.991-1.164.427-.211.708-.761.785-.995.027-.078.039-.121.039-.121a.154.154 0 0 1 .185-.116c.084.02.136.104.114.19-.008.011-.185.857-.917 1.238-.602.296-1.133 1.253-.923 2.282 0 .054.002.105.014.15l-.002.003c.39 1.1 1.208 2.322 2.653 3.582a3.318 3.318 0 0 1-.077-.691c0-.179.017-.29.018-.295a.153.153 0 0 1 .175-.133c.083.014.145.09.132.177 0 0-.012.09-.012.25 0 .329.197.883.609 1.376.216.163.443.328.683.491.095-.023.193-.04.289-.04.093 0 .192.017.288.04.24-.163.47-.328.686-.491.408-.493.609-1.047.609-1.375 0-.16-.014-.251-.014-.251a.157.157 0 0 1 .13-.177.155.155 0 0 1 .176.133c0 .005.015.116.015.295 0 .178-.015.42-.075.69 1.448-1.26 2.265-2.48 2.655-3.581v-.003a.846.846 0 0 0 .014-.15c.21-1.029-.324-1.986-.928-2.282-.73-.38-.908-1.227-.914-1.239a.157.157 0 0 1 .113-.19.155.155 0 0 1 .187.117s.01.043.037.12c.077.235.359.785.785.996.447.233.792.712.994 1.164l.001-.132a5.584 5.584 0 0 0-.734-2.744 2.259 2.259 0 0 0-.133-.206.16.16 0 0 1 .034-.22.154.154 0 0 1 .216.035c.01.015.874 1.197.923 2.983.135-.205.285-.385.427-.576.14-.175.255-.561.318-.89.065-.332.088-.608.088-.608a.159.159 0 0 1 .172-.143.158.158 0 0 1 .138.17c-.007.012-.087 1.143-.469 1.662-.324.422-.609.737-.744 1.295a7.016 7.016 0 0 1-.764 2.343c.206-.019.456-.018.809-.179M5.456 28.553l-1.398-4.032-1.45 4.032h2.848zm-2.04-5.385h1.388l3.293 9.124H6.75l-.945-2.733H2.242l-.982 2.733H0l3.416-9.124zM8.835 32.292h1.114v-9.124H8.835zM11.393 32.292h1.113v-9.124h-1.113zM18.15 28.436c-.045-.484-.146-.874-.31-1.162-.303-.538-.808-.808-1.513-.808-.506 0-.932.187-1.276.556-.34.37-.523.843-.544 1.414h3.644zm-.398-2.613c.44.224.774.509 1.002.86.22.336.367.727.442 1.174.065.309.099.795.099 1.47h-4.813c.02.674.178 1.217.474 1.625.293.408.749.615 1.366.615.575 0 1.033-.195 1.377-.582a1.97 1.97 0 0 0 .41-.781h1.095a2.42 2.42 0 0 1-.288.819c-.165.3-.346.546-.546.735-.335.331-.75.556-1.243.67-.268.067-.566.1-.904.1-.816 0-1.51-.303-2.08-.905-.568-.6-.852-1.445-.852-2.528 0-1.07.284-1.937.858-2.605.573-.665 1.323-.999 2.248-.999.465 0 .92.11 1.355.332zM20.196 25.64h1.056v.944c.314-.39.645-.668.996-.838a2.63 2.63 0 0 1 1.167-.255c.94 0 1.573.33 1.902.988.181.362.272.876.272 1.546v4.267H24.46v-4.19c0-.408-.061-.735-.18-.982-.196-.415-.555-.623-1.077-.623-.264 0-.478.029-.648.082-.3.092-.571.272-.802.545-.187.22-.306.448-.361.68-.056.235-.083.567-.083 1.004v3.484h-1.113V25.64zM29.927 29.348c.03.517.146.937.353 1.26.392.606 1.083.908 2.078.908a3.49 3.49 0 0 0 1.211-.198c.705-.257 1.06-.718 1.06-1.38 0-.496-.15-.85-.448-1.063-.305-.206-.779-.386-1.427-.54l-1.187-.277c-.78-.183-1.33-.384-1.654-.604-.56-.38-.837-.95-.837-1.708 0-.82.274-1.492.823-2.019.548-.529 1.327-.787 2.33-.787.927 0 1.713.23 2.361.691.647.462.97 1.2.97 2.214h-1.156c-.059-.488-.184-.863-.376-1.125-.36-.475-.972-.716-1.832-.716-.694 0-1.193.157-1.497.462-.304.307-.456.663-.456 1.068 0 .45.179.775.538.981.237.135.769.3 1.597.497l1.236.292c.594.142 1.051.335 1.376.58.557.426.838 1.046.838 1.855 0 1.009-.358 1.733-1.071 2.168-.713.434-1.54.654-2.483.654-1.104 0-1.962-.291-2.585-.872-.624-.576-.928-1.356-.916-2.341h1.154zM41.262 30.725c.274-.56.408-1.182.408-1.87 0-.622-.098-1.126-.292-1.513-.312-.612-.846-.92-1.603-.92-.67 0-1.158.261-1.463.783-.306.523-.458 1.15-.458 1.885 0 .71.152 1.297.458 1.768.305.473.79.708 1.453.708.729 0 1.23-.28 1.497-.841m.694-4.42c.583.57.875 1.41.875 2.52 0 1.069-.258 1.955-.772 2.654-.515.7-1.317 1.049-2.399 1.049-.904 0-1.62-.309-2.152-.93-.531-.614-.8-1.446-.8-2.49 0-1.115.282-2.004.843-2.667.56-.662 1.313-.993 2.256-.993.848 0 1.564.286 2.149.856M43.975 32.292h1.113v-9.124h-1.113zM46.279 32.292h1.112v-9.124H46.28zM52.942 25.64h1.23c-.155.427-.504 1.401-1.045 2.92a141.672 141.672 0 0 1-1.014 2.797c-.643 1.696-1.094 2.732-1.357 3.104-.263.37-.717.56-1.356.56-.157 0-.277-.007-.363-.02a3.471 3.471 0 0 1-.313-.068v-1.019c.195.055.334.087.421.1.087.012.163.017.227.017.206 0 .357-.034.454-.102a.987.987 0 0 0 .244-.249 40.274 40.274 0 0 0 .5-1.191l-2.446-6.85h1.261l1.772 5.42 1.785-5.42zM55.093 24.586a.476.476 0 0 0-.475.477.473.473 0 0 0 .947 0 .477.477 0 0 0-.472-.477m0-.103c.312 0 .573.259.573.58 0 .31-.261.57-.573.57-.32 0-.58-.26-.58-.57 0-.321.26-.58.58-.58"/>
        <path d="M55.056 25.156h.137a.735.735 0 0 0 .143-.011c.023-.008.037-.023.054-.041a.191.191 0 0 0 .018-.08c0-.036-.008-.065-.027-.084-.013-.02-.038-.032-.07-.04-.01-.002-.046-.002-.107-.002h-.148v.258m-.182.569v-1h.376c.086 0 .158.008.198.026.047.02.082.048.11.1a.334.334 0 0 1 .045.159c0 .078-.027.14-.066.193a.298.298 0 0 1-.18.092.667.667 0 0 1 .203.232l.117.198h-.23l-.131-.224c-.04-.069-.066-.105-.079-.126-.015-.023-.029-.037-.054-.042a.217.217 0 0 0-.087-.015h-.04v.407h-.182"/>
    </g>
</svg>
